# xmcd CD database file
#
# Track frame offsets:
#	150
#	23801
#	42264
#	56990
#	70721
#	88007
#	103515
#	115380
#	130668
#	145859
#	161653
#
# Disc length: 2396 seconds
#
# Revision: 0
# Processed by: cddbd v1.5.2PL0 Copyright (c) Steve Scherf et al.
# Submitted via: CDex 1.40Beta8
#
DISCID=95095a0b
DTITLE=Delmiro Barros - É Bom D+
DYEAR=2008
DGENRE=Forró
TTITLE0=Poema de Minha Terra
TTITLE1=Pranto e Riso
TTITLE2=Cacimba da Saudade
TTITLE3=Eu Acho
TTITLE4=Na Beira do Mar
TTITLE5=Amor de Mentira
TTITLE6=Beijo é Remédio
TTITLE7=Vou Tomar Posse do Seu Coração
TTITLE8=Imagem Difícil
TTITLE9=No Pé da Cajarana
TTITLE10=É Bom D+
EXTD=YEAR: 2008
EXTT0=
EXTT1=
EXTT2=
EXTT3=
EXTT4=
EXTT5=
EXTT6=
EXTT7=
EXTT8=
EXTT9=
EXTT10=
PLAYORDER=
